<svg width="28" height="28" viewBox="0 0 28 28" fill="none" xmlns="http://www.w3.org/2000/svg">
<path d="M18.8914 6.99809C18.2211 6.34122 17.4249 5.82679 16.5506 5.48578C15.6763 5.14477 14.7421 4.98423 13.8041 5.01384C11.999 5.07982 10.2874 5.83342 9.0199 7.1203C7.75237 8.40718 7.02478 10.13 6.98615 11.9358C6.9615 13.4743 7.45103 14.9771 8.37714 16.2058C8.50532 16.3981 11.8268 21.016 12.9322 22.548C13.0489 22.7093 13.2019 22.8407 13.3789 22.9318C13.5559 23.0229 13.7518 23.071 13.9509 23.0723H13.9567C14.1545 23.072 14.3496 23.0254 14.5261 22.9361C14.7027 22.8469 14.856 22.7175 14.9735 22.5584C15.4875 21.8595 19.4932 16.3841 19.5988 16.251C19.6049 16.2437 19.6104 16.2364 19.6159 16.2284C20.5185 15.0125 21.0087 13.5398 21.0148 12.0255C21.0179 11.0877 20.8314 10.1589 20.4665 9.29494C20.1016 8.431 19.5658 7.64973 18.8914 6.99809Z" fill="url(#paint0_linear_4006_302)" stroke="#3A3A3A"/>
<path d="M14.0001 14.0001C14.9666 14.0001 15.7501 13.2166 15.7501 12.2501C15.7501 11.2836 14.9666 10.5001 14.0001 10.5001C13.0336 10.5001 12.2501 11.2836 12.2501 12.2501C12.2501 13.2166 13.0336 14.0001 14.0001 14.0001Z" fill="#F5F5F5"/>
<defs>
<linearGradient id="paint0_linear_4006_302" x1="10.2229" y1="6.05241" x2="17.3725" y2="17.4679" gradientUnits="userSpaceOnUse">
<stop stop-color="#101010"/>
<stop offset="1" stop-color="#2F2F2F"/>
</linearGradient>
</defs>
</svg>
