<svg width="58" height="58" viewBox="0 0 58 58" fill="none" xmlns="http://www.w3.org/2000/svg">
<g filter="url(#filter0_d_695_7)">
<circle cx="29" cy="29" r="25" fill="url(#paint0_linear_695_7)"/>
<circle cx="29" cy="29" r="24" stroke="#0E0D0D" stroke-width="2"/>
</g>
<path d="M26.7176 22.232C27.436 20.0208 30.5642 20.0208 31.2827 22.232L31.558 23.0795C31.8793 24.0683 32.8008 24.7378 33.8406 24.7378H34.7317C37.0566 24.7378 38.0233 27.7129 36.1424 29.0795L35.4215 29.6033C34.5803 30.2144 34.2283 31.2977 34.5496 32.2865L34.825 33.1341C35.5434 35.3452 33.0127 37.1839 31.1318 35.8173L30.4108 35.2936C29.5696 34.6824 28.4306 34.6824 27.5894 35.2936L26.8685 35.8173C24.9876 37.1839 22.4568 35.3452 23.1753 33.1341L23.4507 32.2865C23.772 31.2977 23.42 30.2144 22.5788 29.6033L21.8579 29.0795C19.977 27.7129 20.9436 24.7378 23.2686 24.7378H24.1597C25.1994 24.7378 26.1209 24.0683 26.4422 23.0795L26.7176 22.232Z" fill="black"/>
<defs>
<filter id="filter0_d_695_7" x="0" y="0" width="58" height="58" filterUnits="userSpaceOnUse" color-interpolation-filters="sRGB">
<feFlood flood-opacity="0" result="BackgroundImageFix"/>
<feColorMatrix in="SourceAlpha" type="matrix" values="0 0 0 0 0 0 0 0 0 0 0 0 0 0 0 0 0 0 127 0" result="hardAlpha"/>
<feOffset/>
<feGaussianBlur stdDeviation="2"/>
<feComposite in2="hardAlpha" operator="out"/>
<feColorMatrix type="matrix" values="0 0 0 0 0.225 0 0 0 0 0.225 0 0 0 0 0.225 0 0 0 1 0"/>
<feBlend mode="normal" in2="BackgroundImageFix" result="effect1_dropShadow_695_7"/>
<feBlend mode="normal" in="SourceGraphic" in2="effect1_dropShadow_695_7" result="shape"/>
</filter>
<linearGradient id="paint0_linear_695_7" x1="15.5385" y1="6.88462" x2="32.8462" y2="42.4615" gradientUnits="userSpaceOnUse">
<stop stop-color="#101010"/>
<stop offset="1" stop-color="#2F2F2F"/>
</linearGradient>
</defs>
</svg>
