<svg width="22" height="21" viewBox="0 0 22 21" fill="none" xmlns="http://www.w3.org/2000/svg">
<path d="M2.44132 8.34007C2.44005 7.43907 2.61705 6.54673 2.96213 5.71444C3.3072 4.88214 3.81353 4.12634 4.45196 3.49057C5.09038 2.85479 5.84828 2.35161 6.682 2.00999C7.51572 1.66838 8.4088 1.49509 9.30978 1.50011C13.0718 1.52861 16.0832 4.65409 16.0832 8.42557V9.10006C16.0832 12.501 16.7957 14.477 17.4227 15.56C17.4893 15.6754 17.5244 15.8062 17.5246 15.9394C17.5247 16.0725 17.4898 16.2034 17.4234 16.3189C17.357 16.4343 17.2615 16.5303 17.1463 16.5972C17.0311 16.6641 16.9004 16.6996 16.7672 16.7H1.75732C1.62414 16.6996 1.49342 16.6641 1.37826 16.5972C1.2631 16.5303 1.16754 16.4343 1.10115 16.3189C1.03476 16.2034 0.999882 16.0725 1 15.9394C1.00012 15.8062 1.03523 15.6754 1.10182 15.56C1.72882 14.477 2.44132 12.501 2.44132 9.10006V8.34007Z" stroke="#F5F5F5" stroke-linecap="round" stroke-linejoin="round"/>
<path d="M6.22266 16.6992V17.4592C6.22266 18.2655 6.54294 19.0387 7.11305 19.6088C7.68315 20.1789 8.45639 20.4992 9.26264 20.4992C10.0689 20.4992 10.8421 20.1789 11.4122 19.6088C11.9823 19.0387 12.3026 18.2655 12.3026 17.4592V16.6992" stroke="#F5F5F5" stroke-linecap="round" stroke-linejoin="round"/>
<circle cx="19.2627" cy="2" r="2" fill="#EA0000"/>
</svg>
